<?xml version="1.0" encoding="utf-8"?>
<!-- Generator: Adobe Illustrator 26.0.3, SVG Export Plug-In . SVG Version: 6.00 Build 0)  -->
<svg version="1.0" id="katman_1" xmlns="http://www.w3.org/2000/svg" xmlns:xlink="http://www.w3.org/1999/xlink" x="0px" y="0px"
	 viewBox="0 0 600 450" style="enable-background:new 0 0 600 450;" xml:space="preserve">
<style type="text/css">
	.st0{fill:#FFFFFF;}
</style>
<g>
	<path d="M108,115.6h384.3c15.2,0,27.4,12.3,27.4,27.4v164.7c0,15.2-12.3,27.4-27.4,27.4H108c-15.2,0-27.4-12.3-27.4-27.4V143
		C80.5,127.9,92.8,115.6,108,115.6z"/>
</g>
<g transform="translate(8.000000, 7.000000)">
	<polygon class="st0" points="127.4,280.1 161.7,280.1 161.7,156.6 127.4,156.6 	"/>
	<path class="st0" d="M235,156.6l-7.7,57.7l-4.8-31.4c-1.4-10.1-2.7-18.8-4-26.3h-43.1v123.5h29.1l0.1-81.6l12.3,81.6h20.7
		l11.6-83.4l0.1,83.4h29V156.6H235z"/>
	<path class="st0" d="M292.1,280.1V156.6h53.6c12.1,0,21.9,9.7,21.9,21.8v79.9c0,12-9.8,21.8-21.9,21.8H292.1z M332.1,178.8
		c-1.4-0.7-4-1.1-7.8-1.1v81c5,0,8.1-0.9,9.2-2.8c1.2-1.9,1.7-6.9,1.7-15.1V193c0-5.6-0.2-9.2-0.6-10.7
		C334.4,180.7,333.5,179.6,332.1,178.8z"/>
	<path class="st0" d="M432.3,187.5h2.2c12.3,0,22.3,9.6,22.3,21.5v49.5c0,11.9-10,21.5-22.3,21.5h-2.2c-7.5,0-14.2-3.6-18.2-9.1
		l-2,7.6h-30.8V156.6h32.8v39.7C418.4,191,424.9,187.5,432.3,187.5z M425.3,247.8v-29.3c0-4.8-0.3-8-1-9.5c-0.6-1.5-3.2-2.4-5-2.4
		s-4.6,0.8-5.1,2v9.8v30.2v9.5c0.6,1.4,3.3,2.2,5.1,2.2c1.9,0,4.6-0.8,5.1-2.2C425,256.8,425.3,253.3,425.3,247.8z"/>
</g>
</svg>
