<?xml version="1.0" encoding="UTF-8"?>
<svg id="katman_1" xmlns="http://www.w3.org/2000/svg" xmlns:xlink="http://www.w3.org/1999/xlink" version="1.1" viewBox="0 0 600 450">
  <!-- Generator: Adobe Illustrator 29.3.1, SVG Export Plug-In . SVG Version: 2.1.0 Build 151)  -->
  <defs>
    <style>
      .st0 {
        fill: #81740d;
      }

      .st1 {
        fill: #fff;
      }
    </style>
  </defs>
  <path class="st0" d="M108,115.6h384.3c15.2,0,27.4,12.3,27.4,27.4v164.7c0,15.2-12.3,27.4-27.4,27.4H108c-15.2,0-27.4-12.3-27.4-27.4v-164.7c0-15.1,12.2-27.4,27.4-27.4Z"/>
  <g>
    <polygon class="st1" points="135.4 287.1 169.7 287.1 169.7 163.6 135.4 163.6 135.4 287.1"/>
    <path class="st1" d="M243,163.6l-7.7,57.7-4.8-31.4c-1.4-10.1-2.7-18.8-4-26.3h-43.1v123.5h29.1v-81.6c.1,0,12.4,81.6,12.4,81.6h20.7l11.6-83.4v83.4h29.1v-123.5h-43.3Z"/>
    <path class="st1" d="M300.1,287.1v-123.5h53.6c12.1,0,21.9,9.7,21.9,21.8v79.9c0,12-9.8,21.8-21.9,21.8h-53.6ZM340.1,185.8c-1.4-.7-4-1.1-7.8-1.1v81c5,0,8.1-.9,9.2-2.8,1.2-1.9,1.7-6.9,1.7-15.1v-47.8c0-5.6-.2-9.2-.6-10.7-.2-1.6-1.1-2.7-2.5-3.5Z"/>
    <path class="st1" d="M440.3,194.5h2.2c12.3,0,22.3,9.6,22.3,21.5v49.5c0,11.9-10,21.5-22.3,21.5h-2.2c-7.5,0-14.2-3.6-18.2-9.1l-2,7.6h-30.8v-121.9h32.8v39.7c4.3-5.3,10.8-8.8,18.2-8.8ZM433.3,254.8v-29.3c0-4.8-.3-8-1-9.5-.6-1.5-3.2-2.4-5-2.4s-4.6.8-5.1,2v49.5c.6,1.4,3.3,2.2,5.1,2.2s4.6-.8,5.1-2.2c.6-1.3.9-4.8.9-10.3Z"/>
  </g>
</svg>