<?xml version="1.0" encoding="UTF-8"?>
<svg id="Layer_1" xmlns="http://www.w3.org/2000/svg" version="1.1" viewBox="0 0 2500 2389">
  <!-- Generator: Adobe Illustrator 29.3.1, SVG Export Plug-In . SVG Version: 2.1.0 Build 151)  -->
  <defs>
    <style>
      .st0 {
        fill: #81740d;
      }
    </style>
  </defs>
  <path class="st0" d="M0,277.5c0-80.4,28.2-146.8,84.5-199.1C140.8,26.1,214,0,304.1,0s160.1,25.7,214.8,77.2c56.3,53.1,84.5,122.3,84.5,207.5s-27.3,141.6-82,193.1c-56.3,53.1-130.3,79.6-222,79.6h-2.4c-88.5,0-160.1-26.5-214.8-79.6S0,357.9,0,277.5ZM31.4,2389V777h535.7v1612H31.4ZM863.9,2389h535.7v-900.1c0-56.3,6.4-99.7,19.3-130.3,22.5-54.7,56.7-101,102.6-138.8,45.8-37.8,103.4-56.7,172.5-56.7,180.2,0,270.3,121.5,270.3,364.4v861.5h535.7v-924.2c0-238.1-56.3-418.7-168.9-541.7s-261.4-184.6-446.4-184.6-369.2,89.3-485,267.9v4.8h-2.4l2.4-4.8v-229.2h-535.7c3.2,51.5,4.8,211.5,4.8,480.2s-1.6,645.9-4.8,1131.8Z"/>
</svg>