<?xml version="1.0" encoding="UTF-8"?>
<svg id="Capa_1" xmlns="http://www.w3.org/2000/svg" xmlns:xlink="http://www.w3.org/1999/xlink" version="1.1" viewBox="0 0 838 588">
  <!-- Generator: Adobe Illustrator 29.3.1, SVG Export Plug-In . SVG Version: 2.1.0 Build 151)  -->
  <defs>
    <style>
      .st0 {
        fill: #81740d;
      }
    </style>
  </defs>
  <path class="st0" d="M643.3,166.4c-29.2,0-56.2-9.7-77.8-26-24.8-18.7-42.7-46.2-49-77.8-1.6-7.8-2.4-15.9-2.5-24.2h-83.5v353c-.1,33.4-21.9,61.7-52,71.7-8.8,2.9-18.2,4.3-28,3.7-12.6-.7-24.3-4.5-34.6-10.6-21.8-13-36.5-36.6-36.9-63.7-.6-42.2,33.5-76.7,75.7-76.7s16.3,1.4,23.8,3.8v-84.6c-7.9-1.2-15.9-1.8-24.1-1.8-46.2,0-89.4,19.2-120.3,53.8-23.3,26.1-37.3,59.5-39.5,94.5-2.8,45.9,14,89.6,46.6,121.8,4.8,4.7,9.8,9.1,15.1,13.2,27.9,21.5,62.1,33.2,98.1,33.2s16.2-.6,24.1-1.8c33.6-5,64.6-20.4,89.1-44.6,30.1-29.7,46.7-69.2,46.9-111.2l-.4-186.6c14.3,11.1,30,20.2,46.9,27.3,26.2,11.1,54,16.6,82.5,16.6v-83.1c0,0-.2,0-.2,0h0Z"/>
</svg>