<?xml version="1.0" encoding="UTF-8"?>
<svg id="Layer_1" xmlns="http://www.w3.org/2000/svg" version="1.1" viewBox="0 0 256 223">
  <!-- Generator: Adobe Illustrator 29.1.0, SVG Export Plug-In . SVG Version: 2.1.0 Build 142)  -->
  <path d="M255.9,51.7c-1.1,25-18.5,59.2-52.2,102.5-34.8,45.3-64.3,68-88.3,68s-27.6-13.8-37.9-41.4c-6.9-25.3-13.8-50.6-20.7-75.9-7.7-27.6-15.9-41.4-24.7-41.4s-8.6,4-20.1,12.1L0,60c12.6-11.1,25.1-22.2,37.4-33.4C54.2,12,66.9,4.4,75.3,3.6c19.9-1.9,32.2,11.7,36.8,40.9,5,31.5,8.4,51.1,10.4,58.8,5.7,26.1,12.1,39.2,19,39.2s13.4-8.5,24.1-25.4c10.7-17,16.5-29.9,17.2-38.7,1.5-14.6-4.2-22-17.2-22s-12.4,1.4-18.9,4.2C159.2,19.3,183.2-.8,218.7.4c26.3.8,38.7,17.9,37.2,51.3"/>
</svg>